<svg width="71" height="70" viewBox="0 0 71 70" fill="none" xmlns="http://www.w3.org/2000/svg">
<g opacity="0.9">
<path d="M47.1973 18.0469C47.1973 17.7461 46.9512 17.5 46.6504 17.5H20.4004C20.0996 17.5 19.8535 17.7461 19.8535 18.0469V21.3281C19.8535 21.6289 20.0996 21.875 20.4004 21.875H46.6504C46.9512 21.875 47.1973 21.6289 47.1973 21.3281V18.0469ZM46.6504 27.3437H20.4004C20.0996 27.3437 19.8535 27.5898 19.8535 27.8906V31.1719C19.8535 31.4727 20.0996 31.7187 20.4004 31.7187H46.6504C46.9512 31.7187 47.1973 31.4727 47.1973 31.1719V27.8906C47.1973 27.5898 46.9512 27.3437 46.6504 27.3437ZM32.9785 37.1875H20.4004C20.0996 37.1875 19.8535 37.4336 19.8535 37.7344V41.0156C19.8535 41.3164 20.0996 41.5625 20.4004 41.5625H32.9785C33.2793 41.5625 33.5254 41.3164 33.5254 41.0156V37.7344C33.5254 37.4336 33.2793 37.1875 32.9785 37.1875ZM29.6973 58.2422H14.3848V10.1172H52.666V33.6328C52.666 33.9336 52.9121 34.1797 53.2129 34.1797H57.041C57.3418 34.1797 57.5879 33.9336 57.5879 33.6328V7.38281C57.5879 6.17285 56.6104 5.19531 55.4004 5.19531H11.6504C10.4404 5.19531 9.46289 6.17285 9.46289 7.38281V60.9766C9.46289 62.1865 10.4404 63.1641 11.6504 63.1641H29.6973C29.998 63.1641 30.2441 62.918 30.2441 62.6172V58.7891C30.2441 58.4883 29.998 58.2422 29.6973 58.2422ZM54.0879 53.1562C56.0703 51.3584 57.3145 48.7607 57.3145 45.8691C57.3145 40.4346 52.9053 36.0254 47.4707 36.0254C42.0361 36.0254 37.627 40.4346 37.627 45.8691C37.627 48.7607 38.8711 51.3584 40.8535 53.1562C36.957 55.3779 34.2773 59.4932 34.0723 64.2373C34.0586 64.5449 34.3115 64.8047 34.6191 64.8047H37.9072C38.1943 64.8047 38.4336 64.5791 38.4541 64.2852C38.7207 59.5547 42.665 55.7812 47.4707 55.7812C52.2764 55.7812 56.2207 59.5547 56.4873 64.2852C56.501 64.5723 56.7402 64.8047 57.0342 64.8047H60.3223C60.6367 64.8047 60.8828 64.5449 60.8691 64.2373C60.6709 59.4863 57.9844 55.3779 54.0879 53.1562ZM47.4707 40.4004C50.4922 40.4004 52.9395 42.8477 52.9395 45.8691C52.9395 48.8906 50.4922 51.3379 47.4707 51.3379C44.4492 51.3379 42.002 48.8906 42.002 45.8691C42.002 42.8477 44.4492 40.4004 47.4707 40.4004Z" fill="#4F00FF"/>
</g>
</svg>
