<svg width="71" height="66" viewBox="0 0 71 66" fill="none" xmlns="http://www.w3.org/2000/svg">
<g opacity="0.9">
<g opacity="0.8">
<g clip-path="url(#clip0_26_1025)">
<path fill-rule="evenodd" clip-rule="evenodd" d="M37.8975 49.4498C32.0015 49.4498 26.0114 45.9498 22.5155 41.3172C5.74334 41.3172 5.23633 65.2775 5.23633 65.2775H70.5547C70.5547 65.2775 71.8713 41.2109 53.0097 41.2109C49.5179 45.9008 43.7936 49.4498 37.8975 49.4498Z" fill="#4F00FF"/>
<path fill-rule="evenodd" clip-rule="evenodd" d="M51.9465 20.7262C51.9465 27.6199 45.6539 40.8022 37.8852 40.8022C30.1288 40.8022 23.832 27.6158 23.832 20.7262C23.832 13.8366 30.1247 8.24316 37.8852 8.24316C45.6539 8.24725 51.9465 13.8407 51.9465 20.7262Z" fill="#4F00FF"/>
<path fill-rule="evenodd" clip-rule="evenodd" d="M58.2169 14.7768C58.2169 13.4847 56.4178 12.4421 54.1854 12.4339V9.77209C54.1854 9.37547 54.3367 0.0898438 37.9325 0.0898438C21.5364 0.0898438 21.6877 9.37547 21.6877 9.77209V12.5279C21.6468 12.5279 21.6141 12.5157 21.5773 12.5157C19.3571 12.5157 17.5703 13.5419 17.5703 14.8136V26.0741C17.5703 27.3375 19.3612 28.3679 21.5773 28.3679C23.7934 28.3679 25.5925 27.3375 25.5925 26.0741V14.8136C25.5925 14.6377 25.4821 14.4783 25.4167 14.3147V11.244C25.4167 10.9619 24.2391 3.95375 37.9325 3.95375C51.6299 3.95375 50.207 10.9619 50.207 11.244V14.4783C50.1824 14.5805 50.1048 14.6705 50.1048 14.7768V26.2949C50.1048 27.591 51.9161 28.6418 54.1608 28.6418C54.2099 28.6418 54.2467 28.6255 54.2958 28.6255V32.8328H50.2724V36.799H58.2578L58.2169 14.7768Z" fill="#4F00FF"/>
</g>
</g>
</g>
<defs>
<clipPath id="clip0_26_1025">
<rect width="70" height="65.4206" fill="white" transform="translate(0.832031)"/>
</clipPath>
</defs>
</svg>
