<svg width="71" height="70" viewBox="0 0 71 70" fill="none" xmlns="http://www.w3.org/2000/svg">
<path d="M17.9588 8.75V17.5H9.18808V8.75H17.9588ZM4.80273 4.375V21.875H22.3441V4.375H4.80273Z" fill="#6022EA"/>
<path d="M39.8865 15.3125V24.0625H31.1158V15.3125H39.8865ZM26.7305 10.9375V28.4375H44.2718V10.9375H26.7305Z" fill="#6022EA"/>
<path d="M17.9588 35V43.75H9.18808V35H17.9588ZM4.80273 30.625V48.125H22.3441V30.625H4.80273Z" fill="#6022EA"/>
<path d="M48.6558 21.875V35H35.4998V48.125H22.3438V65.625H66.1972V21.875H48.6558ZM39.8851 39.375H48.6558V48.125H39.8851V39.375ZM35.4998 61.25H26.7291V52.5H35.4998V61.25ZM48.6558 61.25H39.8851V52.5H48.6558V61.25ZM61.8118 61.25H53.0411V52.5H61.8118V61.25ZM61.8118 48.125H53.0411V39.375H61.8118V48.125ZM53.0411 35V26.25H61.8118V35H53.0411Z" fill="#6022EA"/>
</svg>
